<svg width="22" height="24" viewBox="0 0 22 24" fill="none" xmlns="http://www.w3.org/2000/svg">
<g clip-path="url(#clip0_3205_63965)">
<path d="M21.2849 3.68926C21.2849 5.68575 21.2849 7.68224 21.2849 9.67867C21.0454 9.67867 20.8057 9.67867 20.5432 9.67867C20.5432 10.6995 20.5432 11.6928 20.5432 12.7099C20.0253 12.7099 19.5304 12.7099 19.0127 12.7099C19.0127 12.8187 19.0127 12.9037 19.0127 12.9887C19.0127 14.9618 19.0218 16.9351 19.0052 18.908C19.0017 19.3137 18.9475 19.7322 18.8381 20.1208C18.6127 20.9221 18.116 21.5211 17.4321 21.9545C17.3673 21.9955 17.2926 22.0886 17.2914 22.1588C17.2825 22.686 17.2909 23.2135 17.2939 23.7408C16.3516 23.7408 15.4093 23.7408 14.467 23.7408C14.467 23.3043 14.467 22.8678 14.467 22.4338C11.8122 22.4338 9.18595 22.4338 6.52684 22.4338C6.52684 22.8784 6.52684 23.3095 6.52684 23.7408C5.59834 23.7408 4.66995 23.7408 3.7415 23.7408C3.74048 23.2204 3.74456 22.7 3.73329 22.1799C3.73149 22.097 3.68145 21.9816 3.61803 21.9388C2.55681 21.2227 2.06334 20.2032 2.06928 18.8922C2.0784 16.8613 2.07168 14.8304 2.07168 12.7996C2.07168 12.7162 2.07168 12.633 2.07168 12.5282C1.59897 12.5282 1.15883 12.5282 0.69956 12.5282C0.69956 11.4548 0.69956 10.4028 0.69956 9.33135C0.453454 9.33135 0.226727 9.33135 0 9.33135C0 7.33486 0 5.33843 0 3.34193C0.551128 3.34193 1.10226 3.34193 1.64882 3.34193C1.64882 5.35427 1.64882 7.33736 1.64882 9.34112C1.41388 9.34112 1.19585 9.34112 0.978783 9.34112C0.978783 10.3192 0.978783 11.2764 0.978783 12.2373C1.3453 12.2373 1.69604 12.2373 2.07162 12.2373C2.07162 12.1345 2.07162 12.0425 2.07162 11.9505C2.07324 9.03708 2.06172 6.12358 2.08212 3.21027C2.09202 1.80088 3.05442 0.535233 4.34693 0.14275C4.53082 0.0869401 4.71921 0.0471657 4.9055 0C8.66086 0 12.4162 0 16.1715 0C16.2164 0.0145318 16.2603 0.035202 16.3062 0.0426558C16.8005 0.122956 17.2558 0.307924 17.6588 0.616286C18.5801 1.3212 19.0165 2.27698 19.0144 3.46733C19.0091 6.35346 19.0127 9.23971 19.0127 12.1259C19.0127 12.218 19.0127 12.3099 19.0127 12.4069C19.4496 12.4069 19.8602 12.4069 20.2701 12.4069C20.2701 11.4898 20.2701 10.5902 20.2701 9.67328C20.0501 9.67328 19.8446 9.67328 19.6327 9.67328C19.6327 7.67209 19.6327 5.68813 19.6327 3.68913C20.1925 3.68926 20.7386 3.68926 21.2849 3.68926ZM3.4159 3.48963C3.4111 3.53912 3.40588 3.56762 3.40588 3.59624C3.4054 6.58985 3.40462 9.5834 3.40864 12.577C3.40876 12.6723 3.445 12.7753 3.48862 12.8613C3.83162 13.5384 4.40327 13.9515 5.03479 14.2859C6.04939 14.8229 7.14541 15.0589 8.26375 15.1899C9.55391 15.341 10.8472 15.3518 12.1422 15.243C13.2716 15.148 14.3814 14.9587 15.4417 14.528C16.1976 14.2212 16.8953 13.815 17.4138 13.1376C17.5903 12.907 17.6853 12.6606 17.6841 12.3464C17.6728 9.49026 17.6774 6.63407 17.6774 3.77789C17.6774 3.68587 17.6774 3.59386 17.6774 3.4897C12.9137 3.48963 8.17303 3.48963 3.4159 3.48963ZM6.88124 2.49458C9.38028 2.49458 11.8551 2.49458 14.331 2.49458C14.331 1.89001 14.331 1.30103 14.331 0.705856C11.8433 0.705856 9.36846 0.705856 6.88124 0.705856C6.88124 1.30485 6.88124 1.89333 6.88124 2.49458ZM7.66348 17.0059C6.27774 17.0059 4.91192 17.0059 3.55126 17.0059C3.55126 17.6571 3.55126 18.2895 3.55126 18.919C4.92914 18.919 6.29088 18.919 7.66348 18.919C7.66348 18.2787 7.66348 17.652 7.66348 17.0059ZM13.5648 16.9995C13.5648 17.6492 13.5648 18.2861 13.5648 18.9177C14.9414 18.9177 16.3009 18.9177 17.6632 18.9177C17.6632 18.2712 17.6632 17.6401 17.6632 16.9995C16.2893 16.9995 14.9298 16.9995 13.5648 16.9995Z" fill="#3C1E46"/>
</g>
<defs>
<clipPath id="clip0_3205_63965">
<rect width="22" height="24" fill="white"/>
</clipPath>
</defs>
</svg>
